<?xml version="1.0" standalone="no"?>
<!DOCTYPE svg PUBLIC "-//W3C//DTD SVG 20010904//EN"
 "http://www.w3.org/TR/2001/REC-SVG-20010904/DTD/svg10.dtd">
<svg version="1.0" xmlns="http://www.w3.org/2000/svg"
 width="514.000000pt" height="524.000000pt" viewBox="0 0 514.000000 524.000000"
 preserveAspectRatio="xMidYMid meet">

<g transform="translate(0.000000,524.000000) scale(0.100000,-0.100000)"
fill="#000000" stroke="none">
<path d="M2330 5140 c-171 -12 -400 -61 -600 -127 -108 -36 -336 -142 -403
-187 -21 -14 -40 -26 -43 -26 -11 0 -194 -128 -264 -184 -122 -98 -273 -243
-340 -326 -181 -222 -271 -370 -398 -650 -45 -100 -128 -385 -143 -490 -4 -30
-14 -91 -23 -135 -23 -114 -23 -565 0 -685 9 -47 20 -107 24 -135 13 -84 70
-281 113 -395 119 -317 275 -575 477 -794 285 -308 560 -495 968 -660 62 -25
121 -46 130 -46 10 0 22 -4 28 -9 15 -13 201 -57 305 -71 208 -28 268 -32 494
-27 415 7 646 61 995 229 375 181 629 382 890 703 88 109 240 324 240 340 0 4
8 19 18 33 63 92 189 450 237 674 53 244 69 591 36 787 -54 319 -76 405 -166
651 -19 53 -123 265 -161 329 -92 157 -210 307 -366 466 -268 272 -547 460
-877 589 -96 38 -287 92 -376 107 -27 4 -75 13 -105 19 -134 26 -464 36 -690
20z m565 -480 c245 -39 435 -99 650 -207 426 -214 778 -610 945 -1063 36 -98
31 -130 -25 -169 -38 -26 -47 -26 -221 -2 -44 6 -127 15 -185 20 -194 17 -444
41 -529 51 -47 5 -129 13 -184 16 -88 6 -101 10 -126 33 -147 141 -323 224
-533 251 -116 15 -273 1 -372 -32 -129 -44 -267 -123 -341 -196 l-41 -40 -114
-11 c-63 -6 -152 -16 -199 -21 -84 -10 -323 -34 -515 -51 -55 -5 -134 -13
-175 -19 -41 -6 -103 -13 -137 -17 l-63 -6 -40 40 c-43 44 -49 71 -25 113 8
14 15 34 15 45 0 11 31 81 68 155 174 345 383 584 691 791 82 54 313 179 333
179 5 0 27 8 51 19 23 10 62 24 87 31 25 8 50 16 55 19 22 13 157 43 274 62
69 10 127 21 129 24 3 3 93 5 201 5 149 0 228 -5 326 -20z m-175 -1485 c155
-46 270 -144 341 -291 l43 -89 1 -125 c0 -111 -3 -132 -25 -185 -66 -162 -159
-258 -310 -319 -56 -23 -78 -26 -180 -26 -107 0 -124 3 -188 29 -211 87 -342
271 -342 479 0 243 142 438 375 518 110 37 183 39 285 9z m-1967 -555 c129
-32 312 -87 362 -109 11 -5 47 -19 80 -32 268 -100 572 -318 721 -516 60 -79
144 -234 144 -265 0 -9 4 -19 9 -22 4 -3 14 -27 21 -53 6 -27 16 -57 21 -68
30 -65 129 -638 129 -746 0 -41 -4 -51 -35 -78 -52 -45 -62 -44 -280 26 -386
124 -780 429 -1020 789 -95 143 -98 148 -158 274 -102 215 -187 522 -187 677
0 71 3 82 24 102 19 18 44 30 84 40 2 1 40 -8 85 -19z m3815 -7 c12 -7 30 -29
39 -48 14 -30 15 -45 4 -122 -36 -257 -99 -459 -211 -678 -156 -306 -401 -580
-700 -784 -201 -137 -495 -262 -652 -278 -43 -4 -51 -2 -78 25 -28 28 -30 36
-30 99 1 140 78 632 108 691 5 9 12 33 16 52 7 40 54 161 67 175 5 5 9 15 9
22 0 11 17 44 75 141 60 102 200 240 350 347 111 79 114 81 256 151 162 80
182 88 369 150 88 29 179 53 295 77 25 6 54 -1 83 -20z"/>
</g>
</svg>
